<svg width="250" height="55" viewBox="0 0 250 55" fill="none" xmlns="http://www.w3.org/2000/svg">
<path d="M14.4414 2.8125L27.5898 39.9375L40.668 2.8125H54.5195V54H43.9375V40.0078L44.9922 15.8555L31.1758 54H23.9336L10.1523 15.8906L11.207 40.0078V54H0.660156V2.8125H14.4414ZM80.5703 54.7031C74.9922 54.7031 70.4453 52.9922 66.9297 49.5703C63.4375 46.1484 61.6914 41.5898 61.6914 35.8945V34.9102C61.6914 31.0898 62.4297 27.6797 63.9062 24.6797C65.3828 21.6562 67.4688 19.3359 70.1641 17.7188C72.8828 16.0781 75.9766 15.2578 79.4453 15.2578C84.6484 15.2578 88.7383 16.8984 91.7148 20.1797C94.7148 23.4609 96.2148 28.1133 96.2148 34.1367V38.2852H71.9922C72.3203 40.7695 73.3047 42.7617 74.9453 44.2617C76.6094 45.7617 78.707 46.5117 81.2383 46.5117C85.1523 46.5117 88.2109 45.0938 90.4141 42.2578L95.4062 47.8477C93.8828 50.0039 91.8203 51.6914 89.2188 52.9102C86.6172 54.1055 83.7344 54.7031 80.5703 54.7031ZM79.4102 23.4844C77.3945 23.4844 75.7539 24.1641 74.4883 25.5234C73.2461 26.8828 72.4492 28.8281 72.0977 31.3594H86.2305V30.5508C86.1836 28.3008 85.5742 26.5664 84.4023 25.3477C83.2305 24.1055 81.5664 23.4844 79.4102 23.4844ZM119.523 54.7031C113.945 54.7031 109.398 52.9922 105.883 49.5703C102.391 46.1484 100.645 41.5898 100.645 35.8945V34.9102C100.645 31.0898 101.383 27.6797 102.859 24.6797C104.336 21.6562 106.422 19.3359 109.117 17.7188C111.836 16.0781 114.93 15.2578 118.398 15.2578C123.602 15.2578 127.691 16.8984 130.668 20.1797C133.668 23.4609 135.168 28.1133 135.168 34.1367V38.2852H110.945C111.273 40.7695 112.258 42.7617 113.898 44.2617C115.562 45.7617 117.66 46.5117 120.191 46.5117C124.105 46.5117 127.164 45.0938 129.367 42.2578L134.359 47.8477C132.836 50.0039 130.773 51.6914 128.172 52.9102C125.57 54.1055 122.688 54.7031 119.523 54.7031ZM118.363 23.4844C116.348 23.4844 114.707 24.1641 113.441 25.5234C112.199 26.8828 111.402 28.8281 111.051 31.3594H125.184V30.5508C125.137 28.3008 124.527 26.5664 123.355 25.3477C122.184 24.1055 120.52 23.4844 118.363 23.4844ZM154.785 38.7422L151.129 42.3984V54H140.969V0H151.129V29.918L153.098 27.3867L162.836 15.9609H175.035L161.289 31.8164L176.23 54H164.559L154.785 38.7422ZM196.234 54.7031C190.656 54.7031 186.109 52.9922 182.594 49.5703C179.102 46.1484 177.355 41.5898 177.355 35.8945V34.9102C177.355 31.0898 178.094 27.6797 179.57 24.6797C181.047 21.6562 183.133 19.3359 185.828 17.7188C188.547 16.0781 191.641 15.2578 195.109 15.2578C200.312 15.2578 204.402 16.8984 207.379 20.1797C210.379 23.4609 211.879 28.1133 211.879 34.1367V38.2852H187.656C187.984 40.7695 188.969 42.7617 190.609 44.2617C192.273 45.7617 194.371 46.5117 196.902 46.5117C200.816 46.5117 203.875 45.0938 206.078 42.2578L211.07 47.8477C209.547 50.0039 207.484 51.6914 204.883 52.9102C202.281 54.1055 199.398 54.7031 196.234 54.7031ZM195.074 23.4844C193.059 23.4844 191.418 24.1641 190.152 25.5234C188.91 26.8828 188.113 28.8281 187.762 31.3594H201.895V30.5508C201.848 28.3008 201.238 26.5664 200.066 25.3477C198.895 24.1055 197.23 23.4844 195.074 23.4844ZM239.055 25.4883C237.672 25.3008 236.453 25.207 235.398 25.207C231.555 25.207 229.035 26.5078 227.84 29.1094V54H217.68V15.9609H227.277L227.559 20.4961C229.598 17.0039 232.422 15.2578 236.031 15.2578C237.156 15.2578 238.211 15.4102 239.195 15.7148L239.055 25.4883ZM238.387 49.0078C238.387 47.3906 238.926 46.0781 240.004 45.0703C241.105 44.0625 242.477 43.5586 244.117 43.5586C245.781 43.5586 247.152 44.0625 248.23 45.0703C249.332 46.0781 249.883 47.3906 249.883 49.0078C249.883 50.6016 249.344 51.9023 248.266 52.9102C247.188 53.8945 245.805 54.3867 244.117 54.3867C242.453 54.3867 241.082 53.8945 240.004 52.9102C238.926 51.9023 238.387 50.6016 238.387 49.0078Z" fill="black"/>
</svg>
